<?xml version="1.0" standalone="no"?>
<!DOCTYPE svg PUBLIC "-//W3C//DTD SVG 20010904//EN"
 "http://www.w3.org/TR/2001/REC-SVG-20010904/DTD/svg10.dtd">
<svg version="1.0" xmlns="http://www.w3.org/2000/svg"
 width="256.000000pt" height="256.000000pt" viewBox="0 0 256.000000 256.000000"
 preserveAspectRatio="xMidYMid meet">
<metadata>
Created by potrace 1.14, written by Peter Selinger 2001-2017
</metadata>
<g transform="translate(0.000000,256.000000) scale(0.100000,-0.100000)"
fill="#000000" stroke="none">
<path d="M1233 2545 c-26 -19 -37 -51 -129 -402 -37 -145 -71 -263 -74 -263
-3 0 -133 74 -290 165 -157 91 -295 165 -308 165 -30 0 -82 -51 -82 -80 0 -26
20 -62 190 -355 71 -121 132 -227 135 -236 5 -13 -4 -19 -47 -29 -69 -16 -443
-115 -530 -141 -83 -24 -106 -51 -92 -107 7 -28 18 -41 44 -54 19 -10 169 -53
332 -95 164 -43 298 -80 298 -83 0 -3 -74 -133 -165 -290 -91 -156 -165 -295
-165 -308 0 -31 52 -82 82 -82 13 0 50 16 82 35 32 19 60 35 61 35 2 0 104 58
226 130 123 71 227 126 231 122 5 -5 23 -67 42 -138 18 -71 46 -174 60 -229
15 -55 29 -107 31 -115 1 -8 8 -33 14 -55 6 -22 10 -43 11 -48 0 -13 29 -65
41 -72 45 -29 108 -8 127 42 9 24 84 302 97 360 9 39 68 258 71 262 2 2 133
-71 291 -163 158 -91 298 -166 311 -166 30 0 82 52 82 82 0 13 -74 152 -165
308 -91 157 -165 287 -165 290 0 3 125 38 278 78 357 94 373 100 391 136 20
42 4 87 -39 108 -19 10 -169 53 -333 95 -239 63 -296 81 -292 93 4 8 74 131
157 274 83 142 155 271 161 286 24 62 -39 124 -102 102 -16 -6 -146 -78 -288
-161 -142 -82 -266 -153 -275 -156 -12 -5 -18 2 -23 27 -10 44 -121 465 -145
549 -11 37 -26 72 -35 79 -24 20 -78 22 -102 5z m65 -462 c7 -27 14 -55 16
-63 107 -406 135 -510 147 -531 17 -32 -2 -26 541 -170 71 -19 128 -37 128
-40 0 -3 -28 -13 -62 -21 -272 -68 -567 -151 -588 -166 -21 -16 -36 -62 -110
-340 -47 -177 -88 -322 -91 -322 -3 0 -13 28 -21 63 -41 164 -150 562 -159
578 -5 10 -18 23 -29 29 -16 9 -409 116 -587 161 -29 7 -53 15 -53 19 0 3 118
36 263 75 392 103 379 99 399 126 10 13 55 165 100 336 46 172 86 313 89 313
3 0 11 -21 17 -47z m-493 -270 c55 -32 111 -64 125 -71 57 -30 59 -34 47 -86
-9 -40 -16 -51 -41 -61 -82 -33 -75 -38 -161 113 -43 75 -86 148 -94 161 -18
29 -25 32 124 -56z m1067 45 c-11 -18 -49 -85 -86 -148 -36 -63 -69 -120 -73
-127 -9 -12 -95 5 -112 22 -8 10 -32 97 -28 102 4 4 312 183 315 183 2 0 -5
-15 -16 -32z m-942 -888 c19 -5 29 -18 42 -60 10 -29 17 -55 15 -56 -2 -2
-191 -113 -271 -159 l-50 -28 22 37 c12 21 55 93 94 162 79 135 66 126 148
104z m848 -105 c40 -69 83 -142 95 -162 l22 -37 -35 21 c-19 11 -87 50 -150
87 -63 36 -120 69 -127 74 -9 6 -9 20 3 60 15 49 18 53 62 66 26 8 50 15 53
15 3 1 38 -55 77 -124z"/>
<path d="M1215 1493 c-44 -12 -98 -57 -131 -108 -14 -23 -19 -48 -19 -105 0
-66 4 -80 28 -117 42 -62 98 -95 171 -100 75 -6 121 12 175 67 94 97 74 264
-41 336 -42 27 -136 41 -183 27z m103 -175 c7 -7 12 -24 12 -38 0 -33 -17 -50
-50 -50 -14 0 -31 5 -38 12 -15 15 -15 61 0 76 7 7 24 12 38 12 14 0 31 -5 38
-12z"/>
</g>
</svg>
